M48
; DRILL file {KiCad (7.0.0-0)} date Tuesday, 28. March 2023 at 15:20:06
; FORMAT={-:-/ absolute / metric / decimal}
; #@! TF.CreationDate,2023-03-28T15:20:06+02:00
; #@! TF.GenerationSoftware,Kicad,Pcbnew,(7.0.0-0)
; #@! TF.FileFunction,Plated,1,4,PTH
FMAT,2
METRIC
; #@! TA.AperFunction,Plated,PTH,ViaDrill
T1C0.200
; #@! TA.AperFunction,Plated,PTH,ComponentDrill
T2C0.500
; #@! TA.AperFunction,Plated,PTH,ComponentDrill
T3C1.000
; #@! TA.AperFunction,Plated,PTH,ComponentDrill
T4C3.180
; #@! TA.AperFunction,Plated,PTH,ComponentDrill
T5C3.200
%
G90
G05
T1
X44.958Y-152.908
X45.974Y-151.13
X46.99Y-152.908
X47.752Y-151.13
X48.514Y-151.13
X50.292Y-153.162
X51.054Y-151.13
X51.816Y-153.162
X52.832Y-151.13
X53.58Y-151.144
X55.557Y-151.13
X56.134Y-151.13
X57.912Y-151.13
X58.674Y-151.13
X60.452Y-151.13
X61.214Y-151.13
X62.992Y-151.13
X63.754Y-151.13
X65.717Y-151.13
X66.294Y-151.13
X68.072Y-151.13
X68.834Y-151.13
X70.612Y-151.13
X71.374Y-151.13
X73.152Y-151.13
X73.914Y-151.13
X75.877Y-151.13
X76.454Y-151.13
X78.232Y-151.13
X78.994Y-151.13
X80.957Y-151.13
X81.534Y-151.13
X83.312Y-151.13
X84.074Y-151.13
X86.037Y-151.13
X86.614Y-151.13
X88.392Y-151.13
X89.154Y-151.13
X98.806Y-152.908
X99.822Y-152.908
X101.092Y-153.162
X103.632Y-151.13
X103.632Y-153.162
X105.156Y-153.162
X106.172Y-151.13
X108.712Y-151.13
X111.252Y-151.13
X113.792Y-151.13
X116.332Y-151.13
X118.872Y-151.13
X121.412Y-151.13
X123.952Y-151.13
X126.492Y-151.13
X129.032Y-151.13
X131.572Y-151.13
X134.112Y-151.13
X136.652Y-151.13
X139.192Y-151.13
X141.732Y-151.13
X144.272Y-151.13
X146.812Y-151.13
X149.352Y-151.13
X151.892Y-151.13
X151.892Y-153.162
X153.416Y-153.162
X154.432Y-151.13
X155.702Y-45.72
X155.702Y-46.99
X155.702Y-48.26
X155.702Y-49.53
X155.702Y-50.8
X155.702Y-52.07
X155.702Y-53.34
X155.702Y-54.61
X155.702Y-55.88
X155.702Y-57.15
X155.702Y-58.42
X155.702Y-59.69
X155.702Y-60.96
X155.702Y-62.23
X155.702Y-63.5
X155.702Y-64.77
X155.702Y-66.04
X155.702Y-67.31
X155.702Y-142.748
X155.702Y-143.51
X155.702Y-144.272
X155.702Y-145.034
X155.702Y-145.796
X155.702Y-146.558
X155.702Y-147.32
X155.702Y-148.082
X155.702Y-148.844
X155.702Y-149.606
X155.702Y-150.368
X155.702Y-151.13
X155.702Y-151.892
X155.702Y-152.654
X156.972Y-151.13
X159.512Y-151.13
X161.036Y-65.532
X161.29Y-57.15
X161.29Y-57.912
X161.29Y-58.674
X161.29Y-59.436
X161.29Y-60.198
X161.29Y-60.96
X161.29Y-61.722
X161.29Y-62.484
X161.29Y-63.246
X161.29Y-64.008
X161.29Y-64.77
X162.052Y-151.13
X164.592Y-151.13
X167.132Y-151.13
X168.656Y-117.602
X168.656Y-151.892
X169.672Y-151.13
X169.926Y-117.602
X169.926Y-153.162
X170.942Y-146.812
X170.942Y-147.574
X170.942Y-148.336
X170.942Y-149.098
X170.942Y-149.86
X170.942Y-150.622
X170.942Y-151.384
X170.942Y-152.146
X171.196Y-153.162
X171.45Y-117.602
X172.212Y-151.13
X173.482Y-151.13
X174.752Y-151.13
X174.752Y-153.162
X175.514Y-117.602
X176.276Y-153.162
X183.639Y-62.36
X183.642Y-48.006
X183.642Y-48.514
X183.642Y-49.022
X183.642Y-49.53
X183.642Y-50.038
X183.642Y-50.546
X183.642Y-51.054
X183.642Y-51.562
X183.642Y-55.372
X183.642Y-55.88
X183.642Y-56.388
X183.642Y-56.896
X183.642Y-62.89
X183.642Y-63.398
X183.642Y-63.906
X184.15Y-48.006
X184.15Y-55.372
X184.15Y-62.382
X184.302Y-69.647
X184.302Y-70.155
X184.302Y-70.663
X184.404Y-69.139
X184.658Y-48.006
X184.658Y-55.372
X184.658Y-62.382
X184.912Y-69.139
X185.166Y-48.006
X185.166Y-55.372
X185.166Y-62.382
X185.42Y-69.139
X185.674Y-62.382
X185.953Y-69.139
X186.182Y-62.382
X187.96Y-55.372
X188.341Y-47.879
X188.468Y-55.372
X188.849Y-47.879
X188.976Y-55.372
X188.976Y-62.23
X189.23Y-69.139
X189.357Y-47.879
X189.484Y-55.372
X189.484Y-62.23
X189.738Y-48.514
X189.738Y-49.022
X189.738Y-49.53
X189.738Y-50.038
X189.738Y-69.139
X189.865Y-47.879
X189.992Y-55.372
X189.992Y-55.88
X189.992Y-56.388
X189.992Y-56.896
X189.992Y-62.23
X189.992Y-62.738
X189.992Y-63.246
X189.992Y-63.754
X190.246Y-69.139
X190.754Y-69.139
X190.754Y-69.647
X190.754Y-70.155
X190.754Y-70.714
T2
X192.68Y-92.5
X192.68Y-149.015
X193.383Y-90.803
X193.383Y-94.197
X193.383Y-147.318
X193.383Y-150.712
X195.08Y-90.1
X195.08Y-94.9
X195.08Y-146.615
X195.08Y-151.415
X196.777Y-90.803
X196.777Y-94.197
X196.777Y-147.318
X196.777Y-150.712
X197.48Y-92.5
X197.48Y-149.015
T3
X96.76Y-41.33
X96.76Y-43.87
X99.3Y-41.33
X99.3Y-43.87
X101.84Y-41.33
X101.84Y-43.87
X104.38Y-41.33
X104.38Y-43.87
X106.92Y-36.25
X106.92Y-38.79
X106.92Y-41.33
X106.92Y-43.87
X109.46Y-36.25
X109.46Y-38.79
X109.46Y-41.33
X109.46Y-43.87
X112.0Y-36.25
X112.0Y-38.79
X112.0Y-41.33
X112.0Y-43.87
X114.54Y-36.25
X114.54Y-38.79
X114.54Y-41.33
X114.54Y-43.87
X117.08Y-36.25
X117.08Y-38.79
X117.08Y-41.33
X117.08Y-43.87
X119.62Y-36.25
X119.62Y-38.79
X119.62Y-41.33
X119.62Y-43.87
X122.16Y-36.25
X122.16Y-38.79
X122.16Y-41.33
X122.16Y-43.87
X124.7Y-36.25
X124.7Y-38.79
X124.7Y-41.33
X124.7Y-43.87
X127.24Y-36.25
X127.24Y-38.79
X127.24Y-41.33
X127.24Y-43.87
X129.78Y-36.25
X129.78Y-38.79
X129.78Y-41.33
X129.78Y-43.87
X132.32Y-36.25
X132.32Y-38.79
X132.32Y-41.33
X132.32Y-43.87
X134.86Y-36.25
X134.86Y-38.79
X134.86Y-41.33
X134.86Y-43.87
X137.4Y-36.25
X137.4Y-38.79
X137.4Y-41.33
X137.4Y-43.87
X139.94Y-36.25
X139.94Y-38.79
X139.94Y-41.33
X139.94Y-43.87
X142.48Y-36.25
X142.48Y-38.79
X142.48Y-41.33
X142.48Y-43.87
X145.02Y-36.25
X145.02Y-38.79
X145.02Y-41.33
X145.02Y-43.87
X147.56Y-36.25
X147.56Y-38.79
X147.56Y-41.33
X147.56Y-43.87
X150.1Y-36.25
X150.1Y-38.79
X150.1Y-41.33
X150.1Y-43.87
X152.64Y-36.25
X152.64Y-38.79
X152.64Y-41.33
X152.64Y-43.87
X155.18Y-36.25
X155.18Y-38.79
X155.18Y-41.33
X155.18Y-43.87
X157.72Y-41.33
X157.72Y-43.87
X160.26Y-41.33
X160.26Y-43.87
X162.8Y-41.33
X162.8Y-43.87
X165.34Y-41.33
X165.34Y-43.87
X167.88Y-41.33
X167.88Y-43.87
X170.42Y-41.33
X170.42Y-43.87
X172.96Y-41.33
X172.96Y-43.87
X175.5Y-41.33
X175.5Y-43.87
T4
X96.76Y-36.25
X99.3Y-121.98
X172.96Y-121.98
X176.77Y-36.25
T5
X195.08Y-92.5
X195.08Y-149.015
T0
M30
