%TF.GenerationSoftware,KiCad,Pcbnew,(7.0.0-0)*%
%TF.CreationDate,2023-03-28T15:20:12+02:00*%
%TF.ProjectId,PC104-ISA-Card,50433130-342d-4495-9341-2d436172642e,rev?*%
%TF.SameCoordinates,Original*%
%TF.FileFunction,Legend,Top*%
%TF.FilePolarity,Positive*%
%FSLAX46Y46*%
G04 Gerber Fmt 4.6, Leading zero omitted, Abs format (unit mm)*
G04 Created by KiCad (PCBNEW (7.0.0-0)) date 2023-03-28 15:20:12*
%MOMM*%
%LPD*%
G01*
G04 APERTURE LIST*
%ADD10C,0.500000*%
%ADD11C,0.150000*%
%ADD12C,0.120000*%
G04 APERTURE END LIST*
D10*
X46434285Y-36617142D02*
X46434285Y-33617142D01*
X46434285Y-33617142D02*
X47577142Y-33617142D01*
X47577142Y-33617142D02*
X47862857Y-33760000D01*
X47862857Y-33760000D02*
X48005714Y-33902857D01*
X48005714Y-33902857D02*
X48148571Y-34188571D01*
X48148571Y-34188571D02*
X48148571Y-34617142D01*
X48148571Y-34617142D02*
X48005714Y-34902857D01*
X48005714Y-34902857D02*
X47862857Y-35045714D01*
X47862857Y-35045714D02*
X47577142Y-35188571D01*
X47577142Y-35188571D02*
X46434285Y-35188571D01*
X51148571Y-36331428D02*
X51005714Y-36474285D01*
X51005714Y-36474285D02*
X50577142Y-36617142D01*
X50577142Y-36617142D02*
X50291428Y-36617142D01*
X50291428Y-36617142D02*
X49862857Y-36474285D01*
X49862857Y-36474285D02*
X49577142Y-36188571D01*
X49577142Y-36188571D02*
X49434285Y-35902857D01*
X49434285Y-35902857D02*
X49291428Y-35331428D01*
X49291428Y-35331428D02*
X49291428Y-34902857D01*
X49291428Y-34902857D02*
X49434285Y-34331428D01*
X49434285Y-34331428D02*
X49577142Y-34045714D01*
X49577142Y-34045714D02*
X49862857Y-33760000D01*
X49862857Y-33760000D02*
X50291428Y-33617142D01*
X50291428Y-33617142D02*
X50577142Y-33617142D01*
X50577142Y-33617142D02*
X51005714Y-33760000D01*
X51005714Y-33760000D02*
X51148571Y-33902857D01*
X54005714Y-36617142D02*
X52291428Y-36617142D01*
X53148571Y-36617142D02*
X53148571Y-33617142D01*
X53148571Y-33617142D02*
X52862857Y-34045714D01*
X52862857Y-34045714D02*
X52577142Y-34331428D01*
X52577142Y-34331428D02*
X52291428Y-34474285D01*
X55862857Y-33617142D02*
X56148571Y-33617142D01*
X56148571Y-33617142D02*
X56434285Y-33760000D01*
X56434285Y-33760000D02*
X56577143Y-33902857D01*
X56577143Y-33902857D02*
X56720000Y-34188571D01*
X56720000Y-34188571D02*
X56862857Y-34760000D01*
X56862857Y-34760000D02*
X56862857Y-35474285D01*
X56862857Y-35474285D02*
X56720000Y-36045714D01*
X56720000Y-36045714D02*
X56577143Y-36331428D01*
X56577143Y-36331428D02*
X56434285Y-36474285D01*
X56434285Y-36474285D02*
X56148571Y-36617142D01*
X56148571Y-36617142D02*
X55862857Y-36617142D01*
X55862857Y-36617142D02*
X55577143Y-36474285D01*
X55577143Y-36474285D02*
X55434285Y-36331428D01*
X55434285Y-36331428D02*
X55291428Y-36045714D01*
X55291428Y-36045714D02*
X55148571Y-35474285D01*
X55148571Y-35474285D02*
X55148571Y-34760000D01*
X55148571Y-34760000D02*
X55291428Y-34188571D01*
X55291428Y-34188571D02*
X55434285Y-33902857D01*
X55434285Y-33902857D02*
X55577143Y-33760000D01*
X55577143Y-33760000D02*
X55862857Y-33617142D01*
X59434286Y-34617142D02*
X59434286Y-36617142D01*
X58720000Y-33474285D02*
X58005714Y-35617142D01*
X58005714Y-35617142D02*
X59862857Y-35617142D01*
X62805714Y-36617142D02*
X62805714Y-33617142D01*
X64091428Y-36474285D02*
X64520000Y-36617142D01*
X64520000Y-36617142D02*
X65234285Y-36617142D01*
X65234285Y-36617142D02*
X65520000Y-36474285D01*
X65520000Y-36474285D02*
X65662857Y-36331428D01*
X65662857Y-36331428D02*
X65805714Y-36045714D01*
X65805714Y-36045714D02*
X65805714Y-35760000D01*
X65805714Y-35760000D02*
X65662857Y-35474285D01*
X65662857Y-35474285D02*
X65520000Y-35331428D01*
X65520000Y-35331428D02*
X65234285Y-35188571D01*
X65234285Y-35188571D02*
X64662857Y-35045714D01*
X64662857Y-35045714D02*
X64377142Y-34902857D01*
X64377142Y-34902857D02*
X64234285Y-34760000D01*
X64234285Y-34760000D02*
X64091428Y-34474285D01*
X64091428Y-34474285D02*
X64091428Y-34188571D01*
X64091428Y-34188571D02*
X64234285Y-33902857D01*
X64234285Y-33902857D02*
X64377142Y-33760000D01*
X64377142Y-33760000D02*
X64662857Y-33617142D01*
X64662857Y-33617142D02*
X65377142Y-33617142D01*
X65377142Y-33617142D02*
X65805714Y-33760000D01*
X66948571Y-35760000D02*
X68377143Y-35760000D01*
X66662857Y-36617142D02*
X67662857Y-33617142D01*
X67662857Y-33617142D02*
X68662857Y-36617142D01*
X71320000Y-35760000D02*
X72748572Y-35760000D01*
X71034286Y-36617142D02*
X72034286Y-33617142D01*
X72034286Y-33617142D02*
X73034286Y-36617142D01*
X75320001Y-36617142D02*
X75320001Y-33617142D01*
X75320001Y-36474285D02*
X75034286Y-36617142D01*
X75034286Y-36617142D02*
X74462858Y-36617142D01*
X74462858Y-36617142D02*
X74177143Y-36474285D01*
X74177143Y-36474285D02*
X74034286Y-36331428D01*
X74034286Y-36331428D02*
X73891429Y-36045714D01*
X73891429Y-36045714D02*
X73891429Y-35188571D01*
X73891429Y-35188571D02*
X74034286Y-34902857D01*
X74034286Y-34902857D02*
X74177143Y-34760000D01*
X74177143Y-34760000D02*
X74462858Y-34617142D01*
X74462858Y-34617142D02*
X75034286Y-34617142D01*
X75034286Y-34617142D02*
X75320001Y-34760000D01*
X78034287Y-36617142D02*
X78034287Y-35045714D01*
X78034287Y-35045714D02*
X77891429Y-34760000D01*
X77891429Y-34760000D02*
X77605715Y-34617142D01*
X77605715Y-34617142D02*
X77034287Y-34617142D01*
X77034287Y-34617142D02*
X76748572Y-34760000D01*
X78034287Y-36474285D02*
X77748572Y-36617142D01*
X77748572Y-36617142D02*
X77034287Y-36617142D01*
X77034287Y-36617142D02*
X76748572Y-36474285D01*
X76748572Y-36474285D02*
X76605715Y-36188571D01*
X76605715Y-36188571D02*
X76605715Y-35902857D01*
X76605715Y-35902857D02*
X76748572Y-35617142D01*
X76748572Y-35617142D02*
X77034287Y-35474285D01*
X77034287Y-35474285D02*
X77748572Y-35474285D01*
X77748572Y-35474285D02*
X78034287Y-35331428D01*
X79462858Y-34617142D02*
X79462858Y-37617142D01*
X79462858Y-34760000D02*
X79748573Y-34617142D01*
X79748573Y-34617142D02*
X80320001Y-34617142D01*
X80320001Y-34617142D02*
X80605715Y-34760000D01*
X80605715Y-34760000D02*
X80748573Y-34902857D01*
X80748573Y-34902857D02*
X80891430Y-35188571D01*
X80891430Y-35188571D02*
X80891430Y-36045714D01*
X80891430Y-36045714D02*
X80748573Y-36331428D01*
X80748573Y-36331428D02*
X80605715Y-36474285D01*
X80605715Y-36474285D02*
X80320001Y-36617142D01*
X80320001Y-36617142D02*
X79748573Y-36617142D01*
X79748573Y-36617142D02*
X79462858Y-36474285D01*
X81748573Y-34617142D02*
X82891430Y-34617142D01*
X82177144Y-33617142D02*
X82177144Y-36188571D01*
X82177144Y-36188571D02*
X82320001Y-36474285D01*
X82320001Y-36474285D02*
X82605716Y-36617142D01*
X82605716Y-36617142D02*
X82891430Y-36617142D01*
X85034287Y-36474285D02*
X84748573Y-36617142D01*
X84748573Y-36617142D02*
X84177145Y-36617142D01*
X84177145Y-36617142D02*
X83891430Y-36474285D01*
X83891430Y-36474285D02*
X83748573Y-36188571D01*
X83748573Y-36188571D02*
X83748573Y-35045714D01*
X83748573Y-35045714D02*
X83891430Y-34760000D01*
X83891430Y-34760000D02*
X84177145Y-34617142D01*
X84177145Y-34617142D02*
X84748573Y-34617142D01*
X84748573Y-34617142D02*
X85034287Y-34760000D01*
X85034287Y-34760000D02*
X85177145Y-35045714D01*
X85177145Y-35045714D02*
X85177145Y-35331428D01*
X85177145Y-35331428D02*
X83748573Y-35617142D01*
X86462859Y-36617142D02*
X86462859Y-34617142D01*
X86462859Y-35188571D02*
X86605716Y-34902857D01*
X86605716Y-34902857D02*
X86748574Y-34760000D01*
X86748574Y-34760000D02*
X87034288Y-34617142D01*
X87034288Y-34617142D02*
X87320002Y-34617142D01*
X46291428Y-41334285D02*
X46577142Y-41477142D01*
X46577142Y-41477142D02*
X47148571Y-41477142D01*
X47148571Y-41477142D02*
X47434285Y-41334285D01*
X47434285Y-41334285D02*
X47577142Y-41048571D01*
X47577142Y-41048571D02*
X47577142Y-40905714D01*
X47577142Y-40905714D02*
X47434285Y-40620000D01*
X47434285Y-40620000D02*
X47148571Y-40477142D01*
X47148571Y-40477142D02*
X46720000Y-40477142D01*
X46720000Y-40477142D02*
X46434285Y-40334285D01*
X46434285Y-40334285D02*
X46291428Y-40048571D01*
X46291428Y-40048571D02*
X46291428Y-39905714D01*
X46291428Y-39905714D02*
X46434285Y-39620000D01*
X46434285Y-39620000D02*
X46720000Y-39477142D01*
X46720000Y-39477142D02*
X47148571Y-39477142D01*
X47148571Y-39477142D02*
X47434285Y-39620000D01*
X50148571Y-39477142D02*
X50148571Y-41477142D01*
X48862856Y-39477142D02*
X48862856Y-41048571D01*
X48862856Y-41048571D02*
X49005713Y-41334285D01*
X49005713Y-41334285D02*
X49291428Y-41477142D01*
X49291428Y-41477142D02*
X49719999Y-41477142D01*
X49719999Y-41477142D02*
X50005713Y-41334285D01*
X50005713Y-41334285D02*
X50148571Y-41191428D01*
X51577142Y-41477142D02*
X51577142Y-39477142D01*
X51577142Y-40048571D02*
X51719999Y-39762857D01*
X51719999Y-39762857D02*
X51862857Y-39620000D01*
X51862857Y-39620000D02*
X52148571Y-39477142D01*
X52148571Y-39477142D02*
X52434285Y-39477142D01*
X54862857Y-38477142D02*
X53434285Y-38477142D01*
X53434285Y-38477142D02*
X53291428Y-39905714D01*
X53291428Y-39905714D02*
X53434285Y-39762857D01*
X53434285Y-39762857D02*
X53720000Y-39620000D01*
X53720000Y-39620000D02*
X54434285Y-39620000D01*
X54434285Y-39620000D02*
X54720000Y-39762857D01*
X54720000Y-39762857D02*
X54862857Y-39905714D01*
X54862857Y-39905714D02*
X55005714Y-40191428D01*
X55005714Y-40191428D02*
X55005714Y-40905714D01*
X55005714Y-40905714D02*
X54862857Y-41191428D01*
X54862857Y-41191428D02*
X54720000Y-41334285D01*
X54720000Y-41334285D02*
X54434285Y-41477142D01*
X54434285Y-41477142D02*
X53720000Y-41477142D01*
X53720000Y-41477142D02*
X53434285Y-41334285D01*
X53434285Y-41334285D02*
X53291428Y-41191428D01*
X56291428Y-41477142D02*
X56291428Y-39477142D01*
X56291428Y-40048571D02*
X56434285Y-39762857D01*
X56434285Y-39762857D02*
X56577143Y-39620000D01*
X56577143Y-39620000D02*
X56862857Y-39477142D01*
X56862857Y-39477142D02*
X57148571Y-39477142D01*
X62091428Y-38334285D02*
X59520000Y-42191428D01*
X64891428Y-41477142D02*
X64891428Y-39477142D01*
X64891428Y-39762857D02*
X65034285Y-39620000D01*
X65034285Y-39620000D02*
X65320000Y-39477142D01*
X65320000Y-39477142D02*
X65748571Y-39477142D01*
X65748571Y-39477142D02*
X66034285Y-39620000D01*
X66034285Y-39620000D02*
X66177143Y-39905714D01*
X66177143Y-39905714D02*
X66177143Y-41477142D01*
X66177143Y-39905714D02*
X66320000Y-39620000D01*
X66320000Y-39620000D02*
X66605714Y-39477142D01*
X66605714Y-39477142D02*
X67034285Y-39477142D01*
X67034285Y-39477142D02*
X67320000Y-39620000D01*
X67320000Y-39620000D02*
X67462857Y-39905714D01*
X67462857Y-39905714D02*
X67462857Y-41477142D01*
X70177143Y-41477142D02*
X70177143Y-39905714D01*
X70177143Y-39905714D02*
X70034285Y-39620000D01*
X70034285Y-39620000D02*
X69748571Y-39477142D01*
X69748571Y-39477142D02*
X69177143Y-39477142D01*
X69177143Y-39477142D02*
X68891428Y-39620000D01*
X70177143Y-41334285D02*
X69891428Y-41477142D01*
X69891428Y-41477142D02*
X69177143Y-41477142D01*
X69177143Y-41477142D02*
X68891428Y-41334285D01*
X68891428Y-41334285D02*
X68748571Y-41048571D01*
X68748571Y-41048571D02*
X68748571Y-40762857D01*
X68748571Y-40762857D02*
X68891428Y-40477142D01*
X68891428Y-40477142D02*
X69177143Y-40334285D01*
X69177143Y-40334285D02*
X69891428Y-40334285D01*
X69891428Y-40334285D02*
X70177143Y-40191428D01*
X71605714Y-39477142D02*
X71605714Y-41477142D01*
X71605714Y-39762857D02*
X71748571Y-39620000D01*
X71748571Y-39620000D02*
X72034286Y-39477142D01*
X72034286Y-39477142D02*
X72462857Y-39477142D01*
X72462857Y-39477142D02*
X72748571Y-39620000D01*
X72748571Y-39620000D02*
X72891429Y-39905714D01*
X72891429Y-39905714D02*
X72891429Y-41477142D01*
X75605715Y-41477142D02*
X75605715Y-39905714D01*
X75605715Y-39905714D02*
X75462857Y-39620000D01*
X75462857Y-39620000D02*
X75177143Y-39477142D01*
X75177143Y-39477142D02*
X74605715Y-39477142D01*
X74605715Y-39477142D02*
X74320000Y-39620000D01*
X75605715Y-41334285D02*
X75320000Y-41477142D01*
X75320000Y-41477142D02*
X74605715Y-41477142D01*
X74605715Y-41477142D02*
X74320000Y-41334285D01*
X74320000Y-41334285D02*
X74177143Y-41048571D01*
X74177143Y-41048571D02*
X74177143Y-40762857D01*
X74177143Y-40762857D02*
X74320000Y-40477142D01*
X74320000Y-40477142D02*
X74605715Y-40334285D01*
X74605715Y-40334285D02*
X75320000Y-40334285D01*
X75320000Y-40334285D02*
X75605715Y-40191428D01*
X76748572Y-39477142D02*
X77320001Y-41477142D01*
X77320001Y-41477142D02*
X77891429Y-40048571D01*
X77891429Y-40048571D02*
X78462858Y-41477142D01*
X78462858Y-41477142D02*
X79034286Y-39477142D01*
X79891429Y-39477142D02*
X80605715Y-41477142D01*
X81320000Y-39477142D02*
X80605715Y-41477142D01*
X80605715Y-41477142D02*
X80320000Y-42191428D01*
X80320000Y-42191428D02*
X80177143Y-42334285D01*
X80177143Y-42334285D02*
X79891429Y-42477142D01*
X82462857Y-41477142D02*
X82462857Y-39477142D01*
X82462857Y-40048571D02*
X82605714Y-39762857D01*
X82605714Y-39762857D02*
X82748572Y-39620000D01*
X82748572Y-39620000D02*
X83034286Y-39477142D01*
X83034286Y-39477142D02*
X83320000Y-39477142D01*
X84320000Y-41477142D02*
X84320000Y-39477142D01*
X84320000Y-39762857D02*
X84462857Y-39620000D01*
X84462857Y-39620000D02*
X84748572Y-39477142D01*
X84748572Y-39477142D02*
X85177143Y-39477142D01*
X85177143Y-39477142D02*
X85462857Y-39620000D01*
X85462857Y-39620000D02*
X85605715Y-39905714D01*
X85605715Y-39905714D02*
X85605715Y-41477142D01*
X85605715Y-39905714D02*
X85748572Y-39620000D01*
X85748572Y-39620000D02*
X86034286Y-39477142D01*
X86034286Y-39477142D02*
X86462857Y-39477142D01*
X86462857Y-39477142D02*
X86748572Y-39620000D01*
X86748572Y-39620000D02*
X86891429Y-39905714D01*
X86891429Y-39905714D02*
X86891429Y-41477142D01*
X48148571Y-46337142D02*
X47148571Y-44908571D01*
X46434285Y-46337142D02*
X46434285Y-43337142D01*
X46434285Y-43337142D02*
X47577142Y-43337142D01*
X47577142Y-43337142D02*
X47862857Y-43480000D01*
X47862857Y-43480000D02*
X48005714Y-43622857D01*
X48005714Y-43622857D02*
X48148571Y-43908571D01*
X48148571Y-43908571D02*
X48148571Y-44337142D01*
X48148571Y-44337142D02*
X48005714Y-44622857D01*
X48005714Y-44622857D02*
X47862857Y-44765714D01*
X47862857Y-44765714D02*
X47577142Y-44908571D01*
X47577142Y-44908571D02*
X46434285Y-44908571D01*
X50577142Y-46194285D02*
X50291428Y-46337142D01*
X50291428Y-46337142D02*
X49720000Y-46337142D01*
X49720000Y-46337142D02*
X49434285Y-46194285D01*
X49434285Y-46194285D02*
X49291428Y-45908571D01*
X49291428Y-45908571D02*
X49291428Y-44765714D01*
X49291428Y-44765714D02*
X49434285Y-44480000D01*
X49434285Y-44480000D02*
X49720000Y-44337142D01*
X49720000Y-44337142D02*
X50291428Y-44337142D01*
X50291428Y-44337142D02*
X50577142Y-44480000D01*
X50577142Y-44480000D02*
X50720000Y-44765714D01*
X50720000Y-44765714D02*
X50720000Y-45051428D01*
X50720000Y-45051428D02*
X49291428Y-45337142D01*
X51720000Y-44337142D02*
X52434286Y-46337142D01*
X52434286Y-46337142D02*
X53148571Y-44337142D01*
X54291428Y-46051428D02*
X54434285Y-46194285D01*
X54434285Y-46194285D02*
X54291428Y-46337142D01*
X54291428Y-46337142D02*
X54148571Y-46194285D01*
X54148571Y-46194285D02*
X54291428Y-46051428D01*
X54291428Y-46051428D02*
X54291428Y-46337142D01*
X57377142Y-45480000D02*
X58805714Y-45480000D01*
X57091428Y-46337142D02*
X58091428Y-43337142D01*
X58091428Y-43337142D02*
X59091428Y-46337142D01*
X61891428Y-45194285D02*
X64177143Y-45194285D01*
X67262857Y-43622857D02*
X67405714Y-43480000D01*
X67405714Y-43480000D02*
X67691429Y-43337142D01*
X67691429Y-43337142D02*
X68405714Y-43337142D01*
X68405714Y-43337142D02*
X68691429Y-43480000D01*
X68691429Y-43480000D02*
X68834286Y-43622857D01*
X68834286Y-43622857D02*
X68977143Y-43908571D01*
X68977143Y-43908571D02*
X68977143Y-44194285D01*
X68977143Y-44194285D02*
X68834286Y-44622857D01*
X68834286Y-44622857D02*
X67120000Y-46337142D01*
X67120000Y-46337142D02*
X68977143Y-46337142D01*
X70834286Y-43337142D02*
X71120000Y-43337142D01*
X71120000Y-43337142D02*
X71405714Y-43480000D01*
X71405714Y-43480000D02*
X71548572Y-43622857D01*
X71548572Y-43622857D02*
X71691429Y-43908571D01*
X71691429Y-43908571D02*
X71834286Y-44480000D01*
X71834286Y-44480000D02*
X71834286Y-45194285D01*
X71834286Y-45194285D02*
X71691429Y-45765714D01*
X71691429Y-45765714D02*
X71548572Y-46051428D01*
X71548572Y-46051428D02*
X71405714Y-46194285D01*
X71405714Y-46194285D02*
X71120000Y-46337142D01*
X71120000Y-46337142D02*
X70834286Y-46337142D01*
X70834286Y-46337142D02*
X70548572Y-46194285D01*
X70548572Y-46194285D02*
X70405714Y-46051428D01*
X70405714Y-46051428D02*
X70262857Y-45765714D01*
X70262857Y-45765714D02*
X70120000Y-45194285D01*
X70120000Y-45194285D02*
X70120000Y-44480000D01*
X70120000Y-44480000D02*
X70262857Y-43908571D01*
X70262857Y-43908571D02*
X70405714Y-43622857D01*
X70405714Y-43622857D02*
X70548572Y-43480000D01*
X70548572Y-43480000D02*
X70834286Y-43337142D01*
X72977143Y-43622857D02*
X73120000Y-43480000D01*
X73120000Y-43480000D02*
X73405715Y-43337142D01*
X73405715Y-43337142D02*
X74120000Y-43337142D01*
X74120000Y-43337142D02*
X74405715Y-43480000D01*
X74405715Y-43480000D02*
X74548572Y-43622857D01*
X74548572Y-43622857D02*
X74691429Y-43908571D01*
X74691429Y-43908571D02*
X74691429Y-44194285D01*
X74691429Y-44194285D02*
X74548572Y-44622857D01*
X74548572Y-44622857D02*
X72834286Y-46337142D01*
X72834286Y-46337142D02*
X74691429Y-46337142D01*
X75691429Y-43337142D02*
X77548572Y-43337142D01*
X77548572Y-43337142D02*
X76548572Y-44480000D01*
X76548572Y-44480000D02*
X76977143Y-44480000D01*
X76977143Y-44480000D02*
X77262858Y-44622857D01*
X77262858Y-44622857D02*
X77405715Y-44765714D01*
X77405715Y-44765714D02*
X77548572Y-45051428D01*
X77548572Y-45051428D02*
X77548572Y-45765714D01*
X77548572Y-45765714D02*
X77405715Y-46051428D01*
X77405715Y-46051428D02*
X77262858Y-46194285D01*
X77262858Y-46194285D02*
X76977143Y-46337142D01*
X76977143Y-46337142D02*
X76120000Y-46337142D01*
X76120000Y-46337142D02*
X75834286Y-46194285D01*
X75834286Y-46194285D02*
X75691429Y-46051428D01*
D11*
%TO.C,C5*%
X193000333Y-65677142D02*
X192952714Y-65724761D01*
X192952714Y-65724761D02*
X192809857Y-65772380D01*
X192809857Y-65772380D02*
X192714619Y-65772380D01*
X192714619Y-65772380D02*
X192571762Y-65724761D01*
X192571762Y-65724761D02*
X192476524Y-65629523D01*
X192476524Y-65629523D02*
X192428905Y-65534285D01*
X192428905Y-65534285D02*
X192381286Y-65343809D01*
X192381286Y-65343809D02*
X192381286Y-65200952D01*
X192381286Y-65200952D02*
X192428905Y-65010476D01*
X192428905Y-65010476D02*
X192476524Y-64915238D01*
X192476524Y-64915238D02*
X192571762Y-64820000D01*
X192571762Y-64820000D02*
X192714619Y-64772380D01*
X192714619Y-64772380D02*
X192809857Y-64772380D01*
X192809857Y-64772380D02*
X192952714Y-64820000D01*
X192952714Y-64820000D02*
X193000333Y-64867619D01*
X193905095Y-64772380D02*
X193428905Y-64772380D01*
X193428905Y-64772380D02*
X193381286Y-65248571D01*
X193381286Y-65248571D02*
X193428905Y-65200952D01*
X193428905Y-65200952D02*
X193524143Y-65153333D01*
X193524143Y-65153333D02*
X193762238Y-65153333D01*
X193762238Y-65153333D02*
X193857476Y-65200952D01*
X193857476Y-65200952D02*
X193905095Y-65248571D01*
X193905095Y-65248571D02*
X193952714Y-65343809D01*
X193952714Y-65343809D02*
X193952714Y-65581904D01*
X193952714Y-65581904D02*
X193905095Y-65677142D01*
X193905095Y-65677142D02*
X193857476Y-65724761D01*
X193857476Y-65724761D02*
X193762238Y-65772380D01*
X193762238Y-65772380D02*
X193524143Y-65772380D01*
X193524143Y-65772380D02*
X193428905Y-65724761D01*
X193428905Y-65724761D02*
X193381286Y-65677142D01*
%TO.C,C6*%
X193000333Y-62502142D02*
X192952714Y-62549761D01*
X192952714Y-62549761D02*
X192809857Y-62597380D01*
X192809857Y-62597380D02*
X192714619Y-62597380D01*
X192714619Y-62597380D02*
X192571762Y-62549761D01*
X192571762Y-62549761D02*
X192476524Y-62454523D01*
X192476524Y-62454523D02*
X192428905Y-62359285D01*
X192428905Y-62359285D02*
X192381286Y-62168809D01*
X192381286Y-62168809D02*
X192381286Y-62025952D01*
X192381286Y-62025952D02*
X192428905Y-61835476D01*
X192428905Y-61835476D02*
X192476524Y-61740238D01*
X192476524Y-61740238D02*
X192571762Y-61645000D01*
X192571762Y-61645000D02*
X192714619Y-61597380D01*
X192714619Y-61597380D02*
X192809857Y-61597380D01*
X192809857Y-61597380D02*
X192952714Y-61645000D01*
X192952714Y-61645000D02*
X193000333Y-61692619D01*
X193857476Y-61597380D02*
X193667000Y-61597380D01*
X193667000Y-61597380D02*
X193571762Y-61645000D01*
X193571762Y-61645000D02*
X193524143Y-61692619D01*
X193524143Y-61692619D02*
X193428905Y-61835476D01*
X193428905Y-61835476D02*
X193381286Y-62025952D01*
X193381286Y-62025952D02*
X193381286Y-62406904D01*
X193381286Y-62406904D02*
X193428905Y-62502142D01*
X193428905Y-62502142D02*
X193476524Y-62549761D01*
X193476524Y-62549761D02*
X193571762Y-62597380D01*
X193571762Y-62597380D02*
X193762238Y-62597380D01*
X193762238Y-62597380D02*
X193857476Y-62549761D01*
X193857476Y-62549761D02*
X193905095Y-62502142D01*
X193905095Y-62502142D02*
X193952714Y-62406904D01*
X193952714Y-62406904D02*
X193952714Y-62168809D01*
X193952714Y-62168809D02*
X193905095Y-62073571D01*
X193905095Y-62073571D02*
X193857476Y-62025952D01*
X193857476Y-62025952D02*
X193762238Y-61978333D01*
X193762238Y-61978333D02*
X193571762Y-61978333D01*
X193571762Y-61978333D02*
X193476524Y-62025952D01*
X193476524Y-62025952D02*
X193428905Y-62073571D01*
X193428905Y-62073571D02*
X193381286Y-62168809D01*
%TO.C,H1*%
X194318095Y-145182380D02*
X194318095Y-144182380D01*
X194318095Y-144658571D02*
X194889523Y-144658571D01*
X194889523Y-145182380D02*
X194889523Y-144182380D01*
X195889523Y-145182380D02*
X195318095Y-145182380D01*
X195603809Y-145182380D02*
X195603809Y-144182380D01*
X195603809Y-144182380D02*
X195508571Y-144325238D01*
X195508571Y-144325238D02*
X195413333Y-144420476D01*
X195413333Y-144420476D02*
X195318095Y-144468095D01*
%TO.C,C4*%
X193000333Y-69487142D02*
X192952714Y-69534761D01*
X192952714Y-69534761D02*
X192809857Y-69582380D01*
X192809857Y-69582380D02*
X192714619Y-69582380D01*
X192714619Y-69582380D02*
X192571762Y-69534761D01*
X192571762Y-69534761D02*
X192476524Y-69439523D01*
X192476524Y-69439523D02*
X192428905Y-69344285D01*
X192428905Y-69344285D02*
X192381286Y-69153809D01*
X192381286Y-69153809D02*
X192381286Y-69010952D01*
X192381286Y-69010952D02*
X192428905Y-68820476D01*
X192428905Y-68820476D02*
X192476524Y-68725238D01*
X192476524Y-68725238D02*
X192571762Y-68630000D01*
X192571762Y-68630000D02*
X192714619Y-68582380D01*
X192714619Y-68582380D02*
X192809857Y-68582380D01*
X192809857Y-68582380D02*
X192952714Y-68630000D01*
X192952714Y-68630000D02*
X193000333Y-68677619D01*
X193857476Y-68915714D02*
X193857476Y-69582380D01*
X193619381Y-68534761D02*
X193381286Y-69249047D01*
X193381286Y-69249047D02*
X194000333Y-69249047D01*
%TO.C,C2*%
X193000333Y-47897142D02*
X192952714Y-47944761D01*
X192952714Y-47944761D02*
X192809857Y-47992380D01*
X192809857Y-47992380D02*
X192714619Y-47992380D01*
X192714619Y-47992380D02*
X192571762Y-47944761D01*
X192571762Y-47944761D02*
X192476524Y-47849523D01*
X192476524Y-47849523D02*
X192428905Y-47754285D01*
X192428905Y-47754285D02*
X192381286Y-47563809D01*
X192381286Y-47563809D02*
X192381286Y-47420952D01*
X192381286Y-47420952D02*
X192428905Y-47230476D01*
X192428905Y-47230476D02*
X192476524Y-47135238D01*
X192476524Y-47135238D02*
X192571762Y-47040000D01*
X192571762Y-47040000D02*
X192714619Y-46992380D01*
X192714619Y-46992380D02*
X192809857Y-46992380D01*
X192809857Y-46992380D02*
X192952714Y-47040000D01*
X192952714Y-47040000D02*
X193000333Y-47087619D01*
X193381286Y-47087619D02*
X193428905Y-47040000D01*
X193428905Y-47040000D02*
X193524143Y-46992380D01*
X193524143Y-46992380D02*
X193762238Y-46992380D01*
X193762238Y-46992380D02*
X193857476Y-47040000D01*
X193857476Y-47040000D02*
X193905095Y-47087619D01*
X193905095Y-47087619D02*
X193952714Y-47182857D01*
X193952714Y-47182857D02*
X193952714Y-47278095D01*
X193952714Y-47278095D02*
X193905095Y-47420952D01*
X193905095Y-47420952D02*
X193333667Y-47992380D01*
X193333667Y-47992380D02*
X193952714Y-47992380D01*
%TO.C,C8*%
X193000333Y-55517142D02*
X192952714Y-55564761D01*
X192952714Y-55564761D02*
X192809857Y-55612380D01*
X192809857Y-55612380D02*
X192714619Y-55612380D01*
X192714619Y-55612380D02*
X192571762Y-55564761D01*
X192571762Y-55564761D02*
X192476524Y-55469523D01*
X192476524Y-55469523D02*
X192428905Y-55374285D01*
X192428905Y-55374285D02*
X192381286Y-55183809D01*
X192381286Y-55183809D02*
X192381286Y-55040952D01*
X192381286Y-55040952D02*
X192428905Y-54850476D01*
X192428905Y-54850476D02*
X192476524Y-54755238D01*
X192476524Y-54755238D02*
X192571762Y-54660000D01*
X192571762Y-54660000D02*
X192714619Y-54612380D01*
X192714619Y-54612380D02*
X192809857Y-54612380D01*
X192809857Y-54612380D02*
X192952714Y-54660000D01*
X192952714Y-54660000D02*
X193000333Y-54707619D01*
X193571762Y-55040952D02*
X193476524Y-54993333D01*
X193476524Y-54993333D02*
X193428905Y-54945714D01*
X193428905Y-54945714D02*
X193381286Y-54850476D01*
X193381286Y-54850476D02*
X193381286Y-54802857D01*
X193381286Y-54802857D02*
X193428905Y-54707619D01*
X193428905Y-54707619D02*
X193476524Y-54660000D01*
X193476524Y-54660000D02*
X193571762Y-54612380D01*
X193571762Y-54612380D02*
X193762238Y-54612380D01*
X193762238Y-54612380D02*
X193857476Y-54660000D01*
X193857476Y-54660000D02*
X193905095Y-54707619D01*
X193905095Y-54707619D02*
X193952714Y-54802857D01*
X193952714Y-54802857D02*
X193952714Y-54850476D01*
X193952714Y-54850476D02*
X193905095Y-54945714D01*
X193905095Y-54945714D02*
X193857476Y-54993333D01*
X193857476Y-54993333D02*
X193762238Y-55040952D01*
X193762238Y-55040952D02*
X193571762Y-55040952D01*
X193571762Y-55040952D02*
X193476524Y-55088571D01*
X193476524Y-55088571D02*
X193428905Y-55136190D01*
X193428905Y-55136190D02*
X193381286Y-55231428D01*
X193381286Y-55231428D02*
X193381286Y-55421904D01*
X193381286Y-55421904D02*
X193428905Y-55517142D01*
X193428905Y-55517142D02*
X193476524Y-55564761D01*
X193476524Y-55564761D02*
X193571762Y-55612380D01*
X193571762Y-55612380D02*
X193762238Y-55612380D01*
X193762238Y-55612380D02*
X193857476Y-55564761D01*
X193857476Y-55564761D02*
X193905095Y-55517142D01*
X193905095Y-55517142D02*
X193952714Y-55421904D01*
X193952714Y-55421904D02*
X193952714Y-55231428D01*
X193952714Y-55231428D02*
X193905095Y-55136190D01*
X193905095Y-55136190D02*
X193857476Y-55088571D01*
X193857476Y-55088571D02*
X193762238Y-55040952D01*
%TO.C,C1*%
X193000333Y-51707142D02*
X192952714Y-51754761D01*
X192952714Y-51754761D02*
X192809857Y-51802380D01*
X192809857Y-51802380D02*
X192714619Y-51802380D01*
X192714619Y-51802380D02*
X192571762Y-51754761D01*
X192571762Y-51754761D02*
X192476524Y-51659523D01*
X192476524Y-51659523D02*
X192428905Y-51564285D01*
X192428905Y-51564285D02*
X192381286Y-51373809D01*
X192381286Y-51373809D02*
X192381286Y-51230952D01*
X192381286Y-51230952D02*
X192428905Y-51040476D01*
X192428905Y-51040476D02*
X192476524Y-50945238D01*
X192476524Y-50945238D02*
X192571762Y-50850000D01*
X192571762Y-50850000D02*
X192714619Y-50802380D01*
X192714619Y-50802380D02*
X192809857Y-50802380D01*
X192809857Y-50802380D02*
X192952714Y-50850000D01*
X192952714Y-50850000D02*
X193000333Y-50897619D01*
X193952714Y-51802380D02*
X193381286Y-51802380D01*
X193667000Y-51802380D02*
X193667000Y-50802380D01*
X193667000Y-50802380D02*
X193571762Y-50945238D01*
X193571762Y-50945238D02*
X193476524Y-51040476D01*
X193476524Y-51040476D02*
X193381286Y-51088095D01*
%TO.C,H2*%
X194318095Y-88667380D02*
X194318095Y-87667380D01*
X194318095Y-88143571D02*
X194889523Y-88143571D01*
X194889523Y-88667380D02*
X194889523Y-87667380D01*
X195318095Y-87762619D02*
X195365714Y-87715000D01*
X195365714Y-87715000D02*
X195460952Y-87667380D01*
X195460952Y-87667380D02*
X195699047Y-87667380D01*
X195699047Y-87667380D02*
X195794285Y-87715000D01*
X195794285Y-87715000D02*
X195841904Y-87762619D01*
X195841904Y-87762619D02*
X195889523Y-87857857D01*
X195889523Y-87857857D02*
X195889523Y-87953095D01*
X195889523Y-87953095D02*
X195841904Y-88095952D01*
X195841904Y-88095952D02*
X195270476Y-88667380D01*
X195270476Y-88667380D02*
X195889523Y-88667380D01*
%TO.C,J2*%
X114206666Y-149917380D02*
X114206666Y-150631666D01*
X114206666Y-150631666D02*
X114159047Y-150774523D01*
X114159047Y-150774523D02*
X114063809Y-150869761D01*
X114063809Y-150869761D02*
X113920952Y-150917380D01*
X113920952Y-150917380D02*
X113825714Y-150917380D01*
X114635238Y-150012619D02*
X114682857Y-149965000D01*
X114682857Y-149965000D02*
X114778095Y-149917380D01*
X114778095Y-149917380D02*
X115016190Y-149917380D01*
X115016190Y-149917380D02*
X115111428Y-149965000D01*
X115111428Y-149965000D02*
X115159047Y-150012619D01*
X115159047Y-150012619D02*
X115206666Y-150107857D01*
X115206666Y-150107857D02*
X115206666Y-150203095D01*
X115206666Y-150203095D02*
X115159047Y-150345952D01*
X115159047Y-150345952D02*
X114587619Y-150917380D01*
X114587619Y-150917380D02*
X115206666Y-150917380D01*
%TO.C,J1*%
X177197380Y-42933333D02*
X177911666Y-42933333D01*
X177911666Y-42933333D02*
X178054523Y-42980952D01*
X178054523Y-42980952D02*
X178149761Y-43076190D01*
X178149761Y-43076190D02*
X178197380Y-43219047D01*
X178197380Y-43219047D02*
X178197380Y-43314285D01*
X178197380Y-41933333D02*
X178197380Y-42504761D01*
X178197380Y-42219047D02*
X177197380Y-42219047D01*
X177197380Y-42219047D02*
X177340238Y-42314285D01*
X177340238Y-42314285D02*
X177435476Y-42409523D01*
X177435476Y-42409523D02*
X177483095Y-42504761D01*
%TO.C,C3*%
X193127333Y-72408142D02*
X193079714Y-72455761D01*
X193079714Y-72455761D02*
X192936857Y-72503380D01*
X192936857Y-72503380D02*
X192841619Y-72503380D01*
X192841619Y-72503380D02*
X192698762Y-72455761D01*
X192698762Y-72455761D02*
X192603524Y-72360523D01*
X192603524Y-72360523D02*
X192555905Y-72265285D01*
X192555905Y-72265285D02*
X192508286Y-72074809D01*
X192508286Y-72074809D02*
X192508286Y-71931952D01*
X192508286Y-71931952D02*
X192555905Y-71741476D01*
X192555905Y-71741476D02*
X192603524Y-71646238D01*
X192603524Y-71646238D02*
X192698762Y-71551000D01*
X192698762Y-71551000D02*
X192841619Y-71503380D01*
X192841619Y-71503380D02*
X192936857Y-71503380D01*
X192936857Y-71503380D02*
X193079714Y-71551000D01*
X193079714Y-71551000D02*
X193127333Y-71598619D01*
X193460667Y-71503380D02*
X194079714Y-71503380D01*
X194079714Y-71503380D02*
X193746381Y-71884333D01*
X193746381Y-71884333D02*
X193889238Y-71884333D01*
X193889238Y-71884333D02*
X193984476Y-71931952D01*
X193984476Y-71931952D02*
X194032095Y-71979571D01*
X194032095Y-71979571D02*
X194079714Y-72074809D01*
X194079714Y-72074809D02*
X194079714Y-72312904D01*
X194079714Y-72312904D02*
X194032095Y-72408142D01*
X194032095Y-72408142D02*
X193984476Y-72455761D01*
X193984476Y-72455761D02*
X193889238Y-72503380D01*
X193889238Y-72503380D02*
X193603524Y-72503380D01*
X193603524Y-72503380D02*
X193508286Y-72455761D01*
X193508286Y-72455761D02*
X193460667Y-72408142D01*
%TO.C,C7*%
X193000333Y-58692142D02*
X192952714Y-58739761D01*
X192952714Y-58739761D02*
X192809857Y-58787380D01*
X192809857Y-58787380D02*
X192714619Y-58787380D01*
X192714619Y-58787380D02*
X192571762Y-58739761D01*
X192571762Y-58739761D02*
X192476524Y-58644523D01*
X192476524Y-58644523D02*
X192428905Y-58549285D01*
X192428905Y-58549285D02*
X192381286Y-58358809D01*
X192381286Y-58358809D02*
X192381286Y-58215952D01*
X192381286Y-58215952D02*
X192428905Y-58025476D01*
X192428905Y-58025476D02*
X192476524Y-57930238D01*
X192476524Y-57930238D02*
X192571762Y-57835000D01*
X192571762Y-57835000D02*
X192714619Y-57787380D01*
X192714619Y-57787380D02*
X192809857Y-57787380D01*
X192809857Y-57787380D02*
X192952714Y-57835000D01*
X192952714Y-57835000D02*
X193000333Y-57882619D01*
X193333667Y-57787380D02*
X194000333Y-57787380D01*
X194000333Y-57787380D02*
X193571762Y-58787380D01*
D12*
%TO.C,C5*%
X191161500Y-67792000D02*
X191161500Y-63272000D01*
X191161500Y-63272000D02*
X183101500Y-63272000D01*
X183101500Y-67792000D02*
X191161500Y-67792000D01*
%TO.C,C6*%
X187579580Y-62740000D02*
X187298420Y-62740000D01*
X187579580Y-61720000D02*
X187298420Y-61720000D01*
%TO.C,C4*%
X187298420Y-68578000D02*
X187579580Y-68578000D01*
X187298420Y-69598000D02*
X187579580Y-69598000D01*
%TO.C,C2*%
X186309420Y-47369000D02*
X186590580Y-47369000D01*
X186309420Y-48389000D02*
X186590580Y-48389000D01*
%TO.C,C8*%
X186843580Y-55882000D02*
X186562420Y-55882000D01*
X186843580Y-54862000D02*
X186562420Y-54862000D01*
%TO.C,C1*%
X182280000Y-49556000D02*
X182280000Y-54076000D01*
X182280000Y-54076000D02*
X190340000Y-54076000D01*
X190340000Y-49556000D02*
X182280000Y-49556000D01*
%TO.C,J2*%
X43350000Y-152440000D02*
X42950000Y-152440000D01*
X43350000Y-161390000D02*
X43350000Y-152440000D01*
X91750000Y-153790000D02*
X96700000Y-153790000D01*
X91750000Y-161390000D02*
X91750000Y-153790000D01*
X96700000Y-153790000D02*
X96700000Y-161390000D01*
X178100000Y-152440000D02*
X178500000Y-152440000D01*
X178100000Y-161390000D02*
X178100000Y-152440000D01*
%TO.C,J1*%
X91680000Y-127060000D02*
X181850000Y-127060000D01*
X91680000Y-31170000D02*
X91680000Y-127060000D01*
X181850000Y-31170000D02*
X181850000Y-127060000D01*
X181850000Y-31170000D02*
X91680000Y-31170000D01*
%TO.C,C3*%
X182788000Y-70130000D02*
X182788000Y-74650000D01*
X182788000Y-74650000D02*
X190848000Y-74650000D01*
X190848000Y-70130000D02*
X182788000Y-70130000D01*
%TO.C,C7*%
X191161500Y-60934000D02*
X191161500Y-56414000D01*
X191161500Y-56414000D02*
X183101500Y-56414000D01*
X183101500Y-60934000D02*
X191161500Y-60934000D01*
%TD*%
M02*
