%TF.GenerationSoftware,KiCad,Pcbnew,(7.0.0-0)*%
%TF.CreationDate,2023-03-28T15:20:12+02:00*%
%TF.ProjectId,PC104-ISA-Card,50433130-342d-4495-9341-2d436172642e,rev?*%
%TF.SameCoordinates,Original*%
%TF.FileFunction,Soldermask,Bot*%
%TF.FilePolarity,Negative*%
%FSLAX46Y46*%
G04 Gerber Fmt 4.6, Leading zero omitted, Abs format (unit mm)*
G04 Created by KiCad (PCBNEW (7.0.0-0)) date 2023-03-28 15:20:12*
%MOMM*%
%LPD*%
G01*
G04 APERTURE LIST*
%ADD10C,0.200000*%
%ADD11C,0.800000*%
%ADD12C,6.400000*%
%ADD13R,1.780000X7.620000*%
%ADD14C,6.350000*%
%ADD15R,1.700000X1.700000*%
%ADD16O,1.700000X1.700000*%
G04 APERTURE END LIST*
D10*
X43420000Y-153730000D02*
X178040000Y-153730000D01*
X178040000Y-153730000D02*
X178040000Y-161350000D01*
X178040000Y-161350000D02*
X43420000Y-161350000D01*
X43420000Y-161350000D02*
X43420000Y-153730000D01*
G36*
X43420000Y-153730000D02*
G01*
X178040000Y-153730000D01*
X178040000Y-161350000D01*
X43420000Y-161350000D01*
X43420000Y-153730000D01*
G37*
D11*
%TO.C,H1*%
X192680000Y-149015000D03*
X193382944Y-147317944D03*
X193382944Y-150712056D03*
X195080000Y-146615000D03*
D12*
X195080000Y-149015000D03*
D11*
X195080000Y-151415000D03*
X196777056Y-147317944D03*
X196777056Y-150712056D03*
X197480000Y-149015000D03*
%TD*%
%TO.C,H2*%
X192680000Y-92500000D03*
X193382944Y-90802944D03*
X193382944Y-94197056D03*
X195080000Y-90100000D03*
D12*
X195080000Y-92500000D03*
D11*
X195080000Y-94900000D03*
X196777056Y-90802944D03*
X196777056Y-94197056D03*
X197480000Y-92500000D03*
%TD*%
D13*
%TO.C,J2*%
X175499999Y-157539999D03*
X172959999Y-157539999D03*
X170419999Y-157539999D03*
X167879999Y-157539999D03*
X165339999Y-157539999D03*
X162799999Y-157539999D03*
X160259999Y-157539999D03*
X157719999Y-157539999D03*
X155179999Y-157539999D03*
X152639999Y-157539999D03*
X150099999Y-157539999D03*
X147559999Y-157539999D03*
X145019999Y-157539999D03*
X142479999Y-157539999D03*
X139939999Y-157539999D03*
X137399999Y-157539999D03*
X134859999Y-157539999D03*
X132319999Y-157539999D03*
X129779999Y-157539999D03*
X127239999Y-157539999D03*
X124699999Y-157539999D03*
X122159999Y-157539999D03*
X119619999Y-157539999D03*
X117079999Y-157539999D03*
X114539999Y-157539999D03*
X111999999Y-157539999D03*
X109459999Y-157539999D03*
X106919999Y-157539999D03*
X104379999Y-157539999D03*
X101839999Y-157539999D03*
X99299999Y-157539999D03*
X89139999Y-157539999D03*
X86599999Y-157539999D03*
X84059999Y-157539999D03*
X81519999Y-157539999D03*
X78979999Y-157539999D03*
X76439999Y-157539999D03*
X73899999Y-157539999D03*
X71359999Y-157539999D03*
X68819999Y-157539999D03*
X66279999Y-157539999D03*
X63739999Y-157539999D03*
X61199999Y-157539999D03*
X58659999Y-157539999D03*
X56119999Y-157539999D03*
X53579999Y-157539999D03*
X51039999Y-157539999D03*
X48499999Y-157539999D03*
X45959999Y-157539999D03*
%TD*%
D14*
%TO.C,J1*%
X99300000Y-121980000D03*
X172960000Y-121980000D03*
X96760000Y-36250000D03*
X176770000Y-36250000D03*
D15*
X175499999Y-41329999D03*
D16*
X172959999Y-41329999D03*
X170419999Y-41329999D03*
X167879999Y-41329999D03*
X165339999Y-41329999D03*
X162799999Y-41329999D03*
X160259999Y-41329999D03*
X157719999Y-41329999D03*
X155179999Y-41329999D03*
X152639999Y-41329999D03*
X150099999Y-41329999D03*
X147559999Y-41329999D03*
X145019999Y-41329999D03*
X142479999Y-41329999D03*
X139939999Y-41329999D03*
X137399999Y-41329999D03*
X134859999Y-41329999D03*
X132319999Y-41329999D03*
X129779999Y-41329999D03*
X127239999Y-41329999D03*
X124699999Y-41329999D03*
X122159999Y-41329999D03*
X119619999Y-41329999D03*
X117079999Y-41329999D03*
X114539999Y-41329999D03*
X111999999Y-41329999D03*
X109459999Y-41329999D03*
X106919999Y-41329999D03*
X104379999Y-41329999D03*
X101839999Y-41329999D03*
X99299999Y-41329999D03*
X96759999Y-41329999D03*
D15*
X175499999Y-43869999D03*
D16*
X172959999Y-43869999D03*
X170419999Y-43869999D03*
X167879999Y-43869999D03*
X165339999Y-43869999D03*
X162799999Y-43869999D03*
X160259999Y-43869999D03*
X157719999Y-43869999D03*
X155179999Y-43869999D03*
X152639999Y-43869999D03*
X150099999Y-43869999D03*
X147559999Y-43869999D03*
X145019999Y-43869999D03*
X142479999Y-43869999D03*
X139939999Y-43869999D03*
X137399999Y-43869999D03*
X134859999Y-43869999D03*
X132319999Y-43869999D03*
X129779999Y-43869999D03*
X127239999Y-43869999D03*
X124699999Y-43869999D03*
X122159999Y-43869999D03*
X119619999Y-43869999D03*
X117079999Y-43869999D03*
X114539999Y-43869999D03*
X111999999Y-43869999D03*
X109459999Y-43869999D03*
X106919999Y-43869999D03*
X104379999Y-43869999D03*
X101839999Y-43869999D03*
X99299999Y-43869999D03*
X96759999Y-43869999D03*
X155179999Y-38789999D03*
D15*
X152639999Y-38789999D03*
D16*
X150099999Y-38789999D03*
X147559999Y-38789999D03*
X145019999Y-38789999D03*
X142479999Y-38789999D03*
X139939999Y-38789999D03*
X137399999Y-38789999D03*
X134859999Y-38789999D03*
X132319999Y-38789999D03*
X129779999Y-38789999D03*
X127239999Y-38789999D03*
X124699999Y-38789999D03*
X122159999Y-38789999D03*
X119619999Y-38789999D03*
X117079999Y-38789999D03*
X114539999Y-38789999D03*
X111999999Y-38789999D03*
X109459999Y-38789999D03*
X106919999Y-38789999D03*
X155179999Y-36249999D03*
D15*
X152639999Y-36249999D03*
D16*
X150099999Y-36249999D03*
X147559999Y-36249999D03*
X145019999Y-36249999D03*
X142479999Y-36249999D03*
X139939999Y-36249999D03*
X137399999Y-36249999D03*
X134859999Y-36249999D03*
X132319999Y-36249999D03*
X129779999Y-36249999D03*
X127239999Y-36249999D03*
X124699999Y-36249999D03*
X122159999Y-36249999D03*
X119619999Y-36249999D03*
X117079999Y-36249999D03*
X114539999Y-36249999D03*
X111999999Y-36249999D03*
X109459999Y-36249999D03*
X106919999Y-36249999D03*
%TD*%
M02*
